<svg xmlns="http://www.w3.org/2000/svg" viewBox="-23.80 -160.00 640.80 228.08">
  <g fill="#AD8A46">
  <path d="M52.6 13.0Q30.400000000000002 13.0 18.3 1.1999999999999993Q6.2 -10.600000000000001 6.2 -29.400000000000002Q6.2 -46.6 14.700000000000001 -63.0Q23.200000000000003 -79.4 36.2 -93.2Q46.800000000000004 -104.4 60.5 -112.60000000000001Q74.2 -120.80000000000001 89.30000000000001 -125.4Q104.4 -130.0 118.80000000000001 -130.0Q130.20000000000002 -130.0 139.4 -126.9Q148.6 -123.80000000000001 154.0 -117.20000000000002Q159.4 -110.60000000000001 159.4 -100.0Q159.4 -90.60000000000001 154.9 -82.5Q150.4 -74.4 142.9 -68.4Q135.4 -62.400000000000006 126.4 -59.0Q117.4 -55.6 108.2 -55.6Q96.2 -55.6 88.0 -61.10000000000001Q79.80000000000001 -66.60000000000001 79.80000000000001 -75.0Q79.80000000000001 -85.80000000000001 93.60000000000001 -96.2Q96.0 -98.0 97.4 -98.0Q98.4 -98.0 98.4 -97.2Q98.4 -95.2 95.2 -94.0Q84.0 -85.0 84.0 -75.8Q84.0 -69.2 90.0 -64.7Q96.0 -60.2 105.0 -60.2Q113.0 -60.2 121.10000000000001 -63.6Q129.20000000000002 -67.0 136.0 -72.80000000000001Q142.8 -78.60000000000001 146.9 -85.9Q151.0 -93.2 151.0 -101.2Q151.0 -114.2 142.2 -120.2Q133.4 -126.2 119.80000000000001 -126.2Q104.4 -126.2 89.30000000000001 -120.4Q74.2 -114.60000000000001 61.0 -104.4Q47.800000000000004 -94.2 37.4 -81.0Q16.6 -54.800000000000004 16.6 -31.8Q16.6 -19.6 22.200000000000003 -11.100000000000001Q27.8 -2.6 37.7 1.8Q47.6 6.2 60.400000000000006 6.2Q79.4 6.2 97.2 -2.1Q115.0 -10.4 127.60000000000001 -24.400000000000002Q131.0 -28.0 132.6 -28.0Q133.8 -28.0 133.8 -26.200000000000003Q133.8 -23.8 131.6 -21.6Q124.80000000000001 -14.4 115.4 -8.2Q106.0 -2.0 95.30000000000001 2.8000000000000003Q84.60000000000001 7.6000000000000005 73.60000000000001 10.3Q62.6 13.0 52.6 13.0Z"/>
  <path d="M154.60000000000002 2.2Q145.60000000000002 2.2 145.60000000000002 -9.200000000000001Q145.60000000000002 -13.600000000000001 148.3 -19.700000000000003Q151.00000000000003 -25.8 156.00000000000003 -32.6Q156.00000000000003 -32.6 152.40000000000003 -29.200000000000003Q148.8 -25.8 144.20000000000002 -20.6Q143.4 -19.8 142.20000000000002 -19.8Q141.4 -19.8 141.4 -20.8Q141.4 -21.8 143.20000000000002 -24.200000000000003L170.8 -56.6Q176.00000000000003 -62.6 182.20000000000002 -62.6Q186.8 -62.6 186.8 -59.0Q186.8 -57.6 185.60000000000002 -56.400000000000006Q181.8 -52.800000000000004 176.3 -46.2Q170.8 -39.6 165.60000000000002 -32.0Q160.4 -24.400000000000002 156.9 -17.5Q153.4 -10.600000000000001 153.4 -6.4Q153.4 -2.8000000000000003 155.8 -2.8000000000000003Q157.20000000000002 -2.8000000000000003 160.20000000000002 -3.9000000000000004Q163.20000000000002 -5.0 168.20000000000002 -8.5Q173.20000000000002 -12.0 180.20000000000002 -19.400000000000002Q181.40000000000003 -20.6 186.60000000000002 -26.6Q191.8 -32.6 200.60000000000002 -43.800000000000004Q216.20000000000002 -63.2 221.0 -63.2Q227.60000000000002 -63.2 228.20000000000002 -57.800000000000004Q228.60000000000002 -56.0 219.8 -46.0Q208.40000000000003 -32.2 204.20000000000002 -26.200000000000003Q196.40000000000003 -14.8 196.40000000000003 -8.4Q196.40000000000003 -4.0 199.40000000000003 -4.0Q202.40000000000003 -4.0 207.10000000000002 -6.9Q211.8 -9.8 217.0 -14.3Q222.20000000000002 -18.8 227.10000000000002 -23.700000000000003Q232.00000000000003 -28.6 235.60000000000002 -32.800000000000004Q236.8 -34.2 238.00000000000003 -34.2Q239.20000000000002 -34.2 239.20000000000002 -33.0Q239.20000000000002 -32.6 239.0 -31.8Q238.8 -31.0 237.8 -30.0Q234.60000000000002 -26.400000000000002 229.60000000000002 -21.1Q224.60000000000002 -15.8 218.8 -10.600000000000001Q213.0 -5.4 207.60000000000002 -2.0Q202.20000000000002 1.4000000000000001 198.40000000000003 1.4000000000000001Q193.8 1.4000000000000001 190.40000000000003 -1.1Q187.00000000000003 -3.6 187.00000000000003 -8.0Q187.00000000000003 -12.4 188.40000000000003 -16.900000000000002Q189.8 -21.400000000000002 190.60000000000002 -24.6Q181.20000000000002 -13.600000000000001 174.10000000000002 -7.800000000000001Q167.00000000000003 -2.0 162.20000000000002 0.10000000000000009Q157.4 2.2 154.60000000000002 2.2Z"/>
  <path d="M218.60000000000002 37.800000000000004Q210.20000000000002 33.2 210.20000000000002 20.400000000000002Q210.20000000000002 6.6000000000000005 232.8 -26.8Q254.40000000000003 -59.0 262.8 -61.6Q263.6 -61.800000000000004 264.20000000000005 -61.900000000000006Q264.8 -62.0 265.40000000000003 -62.0Q268.8 -62.0 268.8 -54.6Q270.20000000000005 -56.0 273.70000000000005 -57.3Q277.20000000000005 -58.6 280.90000000000003 -59.400000000000006Q284.6 -60.2 286.40000000000003 -60.400000000000006Q294.6 -60.800000000000004 300.1 -56.5Q305.6 -52.2 305.6 -45.2Q305.6 -29.0 286.20000000000005 -13.8Q268.6 0.0 255.00000000000003 0.0Q246.00000000000003 0.0 242.60000000000002 -1.0Q237.8 -2.4000000000000004 232.8 -8.4Q230.60000000000002 -6.6000000000000005 228.0 -2.3000000000000003Q225.4 2.0 223.10000000000002 7.1000000000000005Q220.8 12.200000000000001 219.3 17.200000000000003Q217.8 22.200000000000003 217.8 25.6Q217.8 29.0 219.10000000000002 31.3Q220.4 33.6 221.60000000000002 35.6Q221.60000000000002 35.800000000000004 221.70000000000002 35.900000000000006Q221.8 36.0 221.8 36.0Q221.8 37.0 220.70000000000002 37.7Q219.60000000000002 38.400000000000006 218.60000000000002 37.800000000000004ZM252.40000000000003 -5.6000000000000005Q263.6 -5.6000000000000005 278.20000000000005 -17.0Q295.40000000000003 -30.6 295.40000000000003 -47.2Q295.40000000000003 -54.800000000000004 286.0 -54.800000000000004Q277.40000000000003 -54.800000000000004 270.0 -51.0Q268.0 -50.2 263.5 -45.800000000000004Q259.0 -41.400000000000006 251.60000000000002 -33.800000000000004Q235.8 -17.400000000000002 235.8 -12.8Q235.8 -9.200000000000001 242.4 -7.0Q246.8 -5.6000000000000005 252.40000000000003 -5.6000000000000005Z"/>
  <path d="M320.8 2.6Q314.40000000000003 2.6 309.20000000000005 -1.5000000000000002Q304.0 -5.6000000000000005 304.0 -12.4Q304.0 -26.6 321.40000000000003 -44.800000000000004Q339.20000000000005 -63.2 353.20000000000005 -63.2Q358.0 -63.2 360.8 -60.7Q363.6 -58.2 363.6 -54.6Q363.6 -49.6 361.20000000000005 -45.400000000000006Q358.40000000000003 -40.2 353.20000000000005 -40.2Q348.0 -40.2 348.0 -43.400000000000006Q348.0 -45.6 350.6 -50.0Q353.40000000000003 -54.6 353.40000000000003 -54.800000000000004Q353.40000000000003 -55.2 352.8 -55.2Q347.20000000000005 -54.6 337.20000000000005 -47.0Q332.8 -43.6 329.5 -40.6Q326.20000000000005 -37.6 324.20000000000005 -34.800000000000004L316.40000000000003 -23.400000000000002Q315.20000000000005 -21.6 313.90000000000003 -17.200000000000003Q312.6 -12.8 312.6 -10.600000000000001Q312.6 -6.6000000000000005 315.3 -4.0Q318.0 -1.4000000000000001 322.20000000000005 -1.4000000000000001Q332.20000000000005 -1.4000000000000001 348.6 -14.4Q361.8 -24.8 369.8 -35.4Q370.8 -36.6 372.20000000000005 -36.6Q373.6 -36.6 373.6 -35.800000000000004Q373.6 -35.2 372.6 -33.800000000000004Q361.6 -19.200000000000003 346.8 -8.6Q331.0 2.6 320.8 2.6Z"/>
  <path d="M375.6 1.0Q370.80000000000007 1.0 366.00000000000006 -2.4000000000000004Q361.20000000000005 -5.800000000000001 360.6 -10.4Q358.6 -25.8 380.00000000000006 -47.0Q401.20000000000005 -68.2 418.20000000000005 -68.2Q422.80000000000007 -68.2 425.40000000000003 -66.0Q426.80000000000007 -64.60000000000001 427.50000000000006 -62.2Q428.20000000000005 -59.800000000000004 428.6 -59.800000000000004Q429.40000000000003 -59.800000000000004 430.0 -60.10000000000001Q430.6 -60.400000000000006 431.40000000000003 -60.400000000000006Q433.80000000000007 -60.400000000000006 435.6 -58.60000000000001Q437.40000000000003 -56.800000000000004 437.6 -55.400000000000006Q437.80000000000007 -55.0 424.80000000000007 -35.6Q411.80000000000007 -16.6 413.00000000000006 -9.8Q414.00000000000006 -5.2 417.40000000000003 -5.2Q427.80000000000007 -5.2 455.40000000000003 -39.6Q456.00000000000006 -40.400000000000006 456.6 -40.400000000000006Q457.6 -40.400000000000006 457.6 -39.0Q457.6 -37.4 455.80000000000007 -35.0Q430.40000000000003 -0.8 416.80000000000007 -0.8Q415.00000000000006 -0.8 413.40000000000003 -1.4000000000000001Q404.6 -4.800000000000001 404.6 -14.600000000000001Q404.6 -18.0 405.40000000000003 -21.400000000000002L393.00000000000006 -9.4Q387.40000000000003 -3.8000000000000003 382.90000000000003 -1.4000000000000001Q378.40000000000003 1.0 375.6 1.0ZM373.80000000000007 -3.4000000000000004Q385.40000000000003 -3.4000000000000004 405.40000000000003 -28.8L426.6 -58.0Q425.00000000000006 -60.800000000000004 421.40000000000003 -60.800000000000004Q409.20000000000005 -60.800000000000004 388.40000000000003 -41.2Q366.80000000000007 -21.200000000000003 369.00000000000006 -8.200000000000001Q370.00000000000006 -3.4000000000000004 373.80000000000007 -3.4000000000000004Z"/>
  <path d="M485.6 2.4000000000000004Q479.0 2.4000000000000004 473.9 -1.4Q468.8 -5.2 465.1 -11.0Q461.40000000000003 -16.8 458.8 -22.6Q457.40000000000003 -20.8 455.90000000000003 -18.0Q454.40000000000003 -15.200000000000001 452.40000000000003 -11.4L446.20000000000005 1.0Q439.0 -1.8 439.0 -6.6000000000000005Q439.0 -15.200000000000001 465.20000000000005 -54.400000000000006Q490.6 -92.4 500.20000000000005 -99.2Q501.20000000000005 -99.80000000000001 503.40000000000003 -99.80000000000001Q509.6 -99.80000000000001 509.6 -96.60000000000001Q509.6 -96.0 506.8 -92.30000000000001Q504.0 -88.60000000000001 499.8 -83.4Q495.6 -78.2 491.3 -72.9Q487.0 -67.60000000000001 483.8 -63.7Q480.6 -59.800000000000004 480.20000000000005 -58.800000000000004Q498.40000000000003 -68.2 509.20000000000005 -68.2Q513.4 -68.2 516.9 -65.80000000000001Q520.4 -63.400000000000006 522.4000000000001 -60.0Q524.4000000000001 -56.6 524.0 -53.400000000000006Q522.4000000000001 -42.0 508.0 -34.6Q496.40000000000003 -28.400000000000002 486.8 -28.400000000000002Q476.40000000000003 -28.400000000000002 472.40000000000003 -31.0Q471.20000000000005 -31.200000000000003 470.5 -30.5Q469.8 -29.8 470.20000000000005 -28.400000000000002Q475.8 -3.6 488.8 -3.6Q495.20000000000005 -3.6 505.90000000000003 -11.000000000000002Q516.6 -18.400000000000002 528.6 -32.6Q530.0 -34.0 531.2 -34.0Q532.2 -34.0 532.2 -32.800000000000004Q532.2 -31.8 530.8000000000001 -29.8Q525.0 -22.8 517.3 -15.3Q509.6 -7.800000000000001 501.40000000000003 -2.7Q493.20000000000005 2.4000000000000004 485.6 2.4000000000000004ZM474.0 -33.6Q483.0 -33.6 497.6 -41.0Q514.4 -49.400000000000006 514.4 -58.800000000000004Q514.4 -60.400000000000006 512.6 -62.0Q510.8 -63.6 508.8 -63.6Q498.0 -63.6 483.6 -55.2Q467.8 -45.6 464.40000000000003 -34.2Q466.6 -34.2 470.1 -33.900000000000006Q473.6 -33.6 474.0 -33.6Z"/>
  <path d="M533.6000000000001 2.6Q527.2 2.6 522.0 -1.5000000000000002Q516.8000000000001 -5.6000000000000005 516.8000000000001 -12.4Q516.8000000000001 -26.6 534.2 -44.800000000000004Q552.0000000000001 -63.2 566.0000000000001 -63.2Q570.6000000000001 -63.2 573.5000000000001 -60.7Q576.4000000000001 -58.2 576.4000000000001 -54.6Q576.4000000000001 -43.400000000000006 558.6000000000001 -32.6Q542.8000000000001 -23.0 532.0000000000001 -23.0Q530.4000000000001 -23.0 529.2 -23.400000000000002Q526.2 -18.0 526.2 -12.0Q526.2 -1.6 536.0000000000001 -1.6Q546.0000000000001 -1.6 561.8000000000001 -15.0Q574.0000000000001 -24.8 582.6000000000001 -35.800000000000004Q584.4000000000001 -38.2 585.8000000000001 -38.2Q587.0000000000001 -38.2 587.0000000000001 -37.0Q587.0000000000001 -35.800000000000004 585.4000000000001 -33.6Q579.8000000000001 -26.200000000000003 573.4000000000001 -20.0Q567.0000000000001 -13.8 559.6000000000001 -8.6Q544.2 2.6 533.6000000000001 2.6ZM534.8000000000001 -27.400000000000002Q542.4000000000001 -27.400000000000002 554.6000000000001 -35.0Q558.6000000000001 -37.800000000000004 562.5000000000001 -41.300000000000004Q566.4000000000001 -44.800000000000004 568.9000000000001 -48.400000000000006Q571.4000000000001 -52.0 571.4000000000001 -54.800000000000004Q571.4000000000001 -57.400000000000006 567.2 -57.400000000000006Q561.2 -57.400000000000006 550.4000000000001 -48.400000000000006Q545.2 -44.0 540.4000000000001 -38.8Q535.6000000000001 -33.6 532.2 -27.8Q533.4000000000001 -27.400000000000002 534.8000000000001 -27.400000000000002Z"/>
  </g>
</svg>